<svg viewBox="0 0 25 24">
<g clip-path="url(#clip0_2903_16773)">
<path d="M-10.8418 17.7573L-2.35652 26.2426"/>
<path d="M-10.8418 26.2427L-2.35652 17.7574"/>
<path d="M2.40039 17L7.40039 22"/>
<path d="M7.40039 17L2.40039 22"/>
<path d="M16.4004 4L18.4004 6L22.4004 2"/>
<path d="M3.55443 11.6172C3.64377 10.0995 4.11611 8.6292 4.92739 7.34345C5.73866 6.0577 6.86242 4.99841 8.19381 4.26443C9.5252 3.53045 11.0208 3.1457 12.5411 3.14608M12.5411 21.1349C14.0614 21.1353 15.5571 20.7505 16.8884 20.0165C18.2198 19.2826 19.3436 18.2233 20.1549 16.9375C20.9661 15.6518 21.4385 14.1814 21.5278 12.6638"/>
</g>
<defs>
<clipPath id="clip0_2903_16773">
<rect width="24" height="24" fill="white" transform="translate(0.400391)"/>
</clipPath>
</defs>
</svg>
