<svg viewBox="0 0 24 24" xmlns="http://www.w3.org/2000/svg">
  <path d="M12 11.9999C11.4477 11.9999 11 12.4476 11 12.9999C11 13.5522 11.4477 13.9999 12 13.9999V11.9999ZM12.01 13.9999C12.5623 13.9999 13.01 13.5522 13.01 12.9999C13.01 12.4476 12.5623 11.9999 12.01 11.9999V13.9999ZM20 3.49989L20 2.49989L19.9999 2.49989L20 3.49989ZM4 3.49989L4.00007 2.49989H4V3.49989ZM9 17.4999H10C10 16.9476 9.55228 16.4999 9 16.4999V17.4999ZM9 21.9999H8C8 22.3948 8.23241 22.7527 8.59316 22.9134C8.95391 23.0741 9.37543 23.0074 9.66896 22.7432L9 21.9999ZM14 17.4999V16.4999C13.753 16.4999 13.5147 16.5913 13.331 16.7566L14 17.4999ZM18.4999 2.5C17.9476 2.50004 17.5 2.94779 17.5 3.50007C17.5 4.05236 17.9478 4.50004 18.5001 4.5L18.4999 2.5ZM5.49993 4.5C6.05221 4.50004 6.49996 4.05236 6.5 3.50007C6.50004 2.94779 6.05236 2.50004 5.50007 2.5L5.49993 4.5ZM8.10557 4.55269C7.85858 5.04667 8.05882 5.64734 8.5528 5.89432C9.04678 6.1413 9.64745 5.94107 9.89443 5.44709L8.10557 4.55269ZM14 4.00003L14.7809 3.37537L14.7809 3.37537L14 4.00003ZM11.7575 8.02982C11.2217 8.16377 10.8959 8.70671 11.0299 9.2425C11.1638 9.7783 11.7068 10.1041 12.2425 9.9701L11.7575 8.02982ZM12 13.9999H12.01V11.9999H12V13.9999ZM20 4.49989C20.5523 4.49989 21 4.94761 21 5.49989H23C23 3.84304 21.6569 2.49989 20 2.49989V4.49989ZM21 5.49989V15.4999H23V5.49989H21ZM21 15.4999C21 16.0522 20.5523 16.4999 20 16.4999V18.4999C21.6569 18.4999 23 17.1567 23 15.4999H21ZM4 16.4999C3.44772 16.4999 3 16.0522 3 15.4999H1C1 17.1567 2.34315 18.4999 4 18.4999V16.4999ZM3 15.4999V5.49989H1V15.4999H3ZM3 5.49989C3 4.94761 3.44772 4.49989 4 4.49989V2.49989C2.34315 2.49989 1 3.84304 1 5.49989H3ZM9 16.4999H4V18.4999H9V16.4999ZM10 21.9999V17.4999H8V21.9999H10ZM20 16.4999H14V18.4999H20V16.4999ZM13.331 16.7566L8.33104 21.2566L9.66896 22.7432L14.669 18.2432L13.331 16.7566ZM18.5001 4.5L20.0001 4.49989L19.9999 2.49989L18.4999 2.5L18.5001 4.5ZM3.99993 4.49989L5.49993 4.5L5.50007 2.5L4.00007 2.49989L3.99993 4.49989ZM9.89443 5.44709C10.2403 4.75535 10.91 4.30469 11.6138 4.16935C12.3274 4.03211 12.9099 4.2382 13.2191 4.6247L14.7809 3.37537C13.89 2.26161 12.4724 1.96759 11.2361 2.20533C9.98999 2.44496 8.75971 3.24435 8.10557 4.55269L9.89443 5.44709ZM13.2191 4.6247C13.6888 5.21189 13.7152 5.91966 13.4036 6.59845C13.079 7.30579 12.4322 7.86112 11.7575 8.02982L12.2425 9.9701C13.5678 9.63877 14.671 8.63166 15.2213 7.43279C15.7847 6.20537 15.8111 4.66319 14.7809 3.37537L13.2191 4.6247Z" />
</svg>
