<svg viewBox="0 0 24 24">
<path d="M11.5564 20.9999H9.42257C9.04528 20.9999 8.68345 20.8524 8.41666 20.5899C8.14988 20.3273 8 19.9712 8 19.5999V14.7C8 14.3286 8.14988 13.9726 8.41666 13.71C8.68345 13.4475 9.04528 13.3 9.42257 13.3H11.5564M16.5354 11.9V9.09999C16.5354 8.54304 16.3106 8.0089 15.9104 7.61507C15.5103 7.22125 14.9675 7 14.4016 7L11.5564 13.3V20.9999H19.5797C19.9228 21.0037 20.2557 20.8854 20.5172 20.6667C20.7786 20.448 20.9509 20.1437 21.0023 19.8099L21.9839 13.51C22.0148 13.3093 22.0011 13.1044 21.9436 12.9095C21.8861 12.7146 21.7862 12.5344 21.6509 12.3812C21.5156 12.2281 21.3481 12.1057 21.1599 12.0226C20.9718 11.9395 20.7675 11.8977 20.5613 11.9H16.5354Z"/>
<path d="M5.55643 9.29996L8.40158 3C8.96751 3 9.51027 3.22125 9.91044 3.61507C10.3106 4.0089 10.5354 4.54304 10.5354 5.09999L10.5 8H13.5M5.55643 9.29996V16.9999M5.55643 9.29996H3.42257C3.04528 9.29996 2.68345 9.44746 2.41666 9.71001C2.14988 9.97256 2 10.3286 2 10.7V15.5999C2 15.9712 2.14988 16.3273 2.41666 16.5899C2.68345 16.8524 3.04528 16.9999 3.42257 16.9999H5.55643M5.55643 16.9999H8"/>
</svg>
