<svg viewBox="0 0 32 32">
<path d="M8.00002 2.66675H2.66669V8.00008M8.00002 29.3334H2.66669V24.0001M24 2.66675H29.3334V8.00008M24 29.3334H29.3334V24.0001M22.6667 22.6667V21.0371C22.6667 20.1727 22.3155 19.3437 21.6904 18.7325C21.0653 18.1212 20.2174 17.7779 19.3334 17.7779H12.6667C11.7826 17.7779 10.9348 18.1212 10.3097 18.7325C9.68454 19.3437 9.33335 20.1727 9.33335 21.0371V22.6667M19.3334 11.2593C19.3334 13.0594 17.841 14.5186 16 14.5186C14.1591 14.5186 12.6667 13.0594 12.6667 11.2593C12.6667 9.4593 14.1591 8.00008 16 8.00008C17.841 8.00008 19.3334 9.4593 19.3334 11.2593Z" stroke-width="2" stroke-linecap="round" stroke-linejoin="round"/>
</svg>
