<svg viewBox="0 0 24 24">
  <path d="M1.52905 17.2651H3.65555C4.15178 17.2651 4.62698 17.0688 4.97742 16.7184C5.32787 16.3679 5.52411 15.8927 5.52411 15.3965V7.91941C5.52411 7.42318 5.32787 6.94798 4.97742 6.59754C4.62698 6.24709 4.15178 6.05084 3.65555 6.05084H1.87669M24.1227 6.05084H22.3453C21.849 6.05084 21.3738 6.24709 21.0234 6.59754C20.673 6.94798 20.4767 7.42318 20.4767 7.91941V15.3965C20.4767 15.8927 20.673 16.3679 21.0234 16.7184C21.3738 17.0688 21.849 17.2651 22.3453 17.2651H24.4718M20.5051 15.7185H19.2996C18.8987 15.7185 18.502 15.804 18.1375 15.9708L12.2403 18.6566M11.1003 7.33708C10.3938 6.92636 9.54014 6.82403 8.75234 7.10719L5.52405 8.26926M20.7012 7.01196L16.6697 5.23731C15.8062 4.85743 14.8081 4.93733 14.0161 5.45038L10.3575 7.82078C9.19398 8.57354 9.06081 10.2248 10.0869 11.1556C10.7163 11.7261 11.6275 11.8635 12.397 11.5047L14.5782 10.487M14.5782 10.485L15.6856 11.4901C16.9093 12.5989 16.9135 14.5193 15.6968 15.6351L12.8694 18.2228C11.8026 19.2012 10.1654 19.204 9.0944 18.2326L7.15154 16.4706C6.69176 16.0543 6.10582 15.8202 5.49044 15.7697"/>
</svg>
