<svg viewBox="0 0 20 20">
  <title>book ia</title>
  <style>
    :host {
      --stroke-width: 2;
    }

    :host {
      path {
        stroke-width: var(--stroke-width) !important;
        fill: none !important;
      }
    }
  </style>
<path d="M10 5.83333C10 4.94928 9.64881 4.10143 9.02369 3.47631C8.39857 2.85119 7.55072 2.5 6.66667 2.5H1.66667V9.20143M10 5.83333C10 4.94928 10.3512 4.10143 10.9763 3.47631C11.6014 2.85119 12.4493 2.5 13.3333 2.5H18.3333V15H13.4997M10 5.83333V10M1 14.1667C3.91667 14.1667 5.16667 12.5 5.16667 10C5.16667 12.5 6.41667 14.1667 9.33333 14.1667C6.41667 14.1667 5.16667 15.8333 5.16667 18.3333C5.16667 15.8333 3.91667 14.1667 1 14.1667Z" />
</svg>
