<svg width="24" height="24" viewBox="0 0 24 24" fill="none" xmlns="http://www.w3.org/2000/svg">
<path d="M8.70717 12.7929C8.31664 12.4024 7.68348 12.4024 7.29295 12.7929C6.90243 13.1834 6.90243 13.8166 7.29295 14.2071L8.70717 12.7929ZM12.0001 17.5L11.293 18.2071C11.6835 18.5976 12.3166 18.5976 12.7072 18.2071L12.0001 17.5ZM16.7072 14.2071C17.0977 13.8166 17.0977 13.1834 16.7072 12.7929C16.3166 12.4024 15.6835 12.4024 15.293 12.7929L16.7072 14.2071ZM13 6C13 5.44772 12.5523 5 12 5C11.4477 5 11 5.44772 11 6H13ZM11 16.5C11 17.0523 11.4477 17.5 12 17.5C12.5523 17.5 13 17.0523 13 16.5H11ZM21.5 12C21.5 17.2467 17.2467 21.5 12 21.5V23.5C18.3513 23.5 23.5 18.3513 23.5 12H21.5ZM12 21.5C6.75329 21.5 2.5 17.2467 2.5 12H0.5C0.5 18.3513 5.64873 23.5 12 23.5V21.5ZM2.5 12C2.5 6.75329 6.75329 2.5 12 2.5V0.5C5.64873 0.5 0.5 5.64873 0.5 12H2.5ZM12 2.5C17.2467 2.5 21.5 6.75329 21.5 12H23.5C23.5 5.64873 18.3513 0.5 12 0.5V2.5ZM7.29295 14.2071L11.293 18.2071L12.7072 16.7929L8.70717 12.7929L7.29295 14.2071ZM12.7072 18.2071L16.7072 14.2071L15.293 12.7929L11.293 16.7929L12.7072 18.2071ZM11 6V16.5H13V6H11Z"/>
</svg>
