<svg width="24" height="24" viewBox="0 0 24 24" fill="currentColor" xmlns="http://www.w3.org/2000/svg">
<path fill-rule="evenodd" clip-rule="evenodd" d="M11.1951 4C7.59127 4.35671 4.65924 7.08399 3.884 10.6511C2.24552 10.9459 1 12.4193 1 14.1926C1 15.926 2.19029 17.373 3.77437 17.7124C4.09992 19.0275 5.25685 20 6.63415 20H17.3659C18.7431 20 19.9001 19.0275 20.2256 17.7124C21.8097 17.373 23 15.926 23 14.1926C23 12.4193 21.7545 10.9459 20.116 10.6511C19.3408 7.08399 16.4087 4.35671 12.8049 4C12.55 4 11.8537 4 11.1951 4ZM20.3166 12.4428C20.3169 12.4729 20.3171 12.5031 20.3171 12.5333V15.9421C20.9516 15.6314 21.3902 14.9648 21.3902 14.1926C21.3902 13.4201 20.9514 12.7534 20.3166 12.4428ZM2.60976 14.1926C2.60976 13.4201 3.04864 12.7534 3.68339 12.4428C3.68307 12.4729 3.68292 12.5031 3.68292 12.5333V15.9421C3.04842 15.6314 2.60976 14.9648 2.60976 14.1926ZM5.29269 12.5333C5.29269 8.71498 8.29564 5.61964 12 5.61964C15.7044 5.61964 18.7073 8.71498 18.7073 12.5333V16.958C18.7073 17.7217 18.1067 18.3407 17.3659 18.3407H6.63415C5.89329 18.3407 5.29269 17.7217 5.29269 16.958V12.5333Z" />
<path fill-rule="evenodd" clip-rule="evenodd" d="M9.31708 11.1505C8.87255 11.1505 8.51219 11.522 8.51219 11.9802C8.51219 12.4384 8.87255 12.8098 9.31708 12.8098C9.7616 12.8098 10.122 12.4384 10.122 11.9802C10.122 11.522 9.7616 11.1505 9.31708 11.1505ZM6.90243 11.9802C6.90243 10.6056 7.98351 9.49126 9.31708 9.49126C10.6506 9.49126 11.7317 10.6056 11.7317 11.9802C11.7317 13.3548 10.6506 14.4691 9.31708 14.4691C7.98351 14.4691 6.90243 13.3548 6.90243 11.9802Z" />
<path fill-rule="evenodd" clip-rule="evenodd" d="M14.6829 11.1505C14.2384 11.1505 13.878 11.522 13.878 11.9802C13.878 12.4384 14.2384 12.8098 14.6829 12.8098C15.1274 12.8098 15.4878 12.4384 15.4878 11.9802C15.4878 11.522 15.1274 11.1505 14.6829 11.1505ZM12.2683 11.9802C12.2683 10.6056 13.3494 9.49126 14.6829 9.49126C16.0165 9.49126 17.0976 10.6056 17.0976 11.9802C17.0976 13.3548 16.0165 14.4691 14.6829 14.4691C13.3494 14.4691 12.2683 13.3548 12.2683 11.9802Z" />
</svg>
