<svg viewBox="0 0 24 24" fill="none" xmlns="http://www.w3.org/2000/svg">
<path d="M20.4 5H3.6C3.44087 5 3.28826 5.04917 3.17574 5.13668C3.06321 5.2242 3 5.3429 3 5.46667V18.5333C3 18.6571 3.06321 18.7758 3.17574 18.8633C3.28826 18.9508 3.44087 19 3.6 19H20.4C20.5591 19 20.7117 18.9508 20.8243 18.8633C20.9368 18.7758 21 18.6571 21 18.5333V5.46667C21 5.3429 20.9368 5.2242 20.8243 5.13668C20.7117 5.04917 20.5591 5 20.4 5Z" stroke-width="2" stroke-miterlimit="1.5" stroke-linecap="round" stroke-linejoin="round"/>
<path d="M17.6 8H6.4C6.29391 8 6.19217 8.0281 6.11716 8.07811C6.04214 8.12811 6 8.19594 6 8.26667V15.7333C6 15.8041 6.04214 15.8719 6.11716 15.9219C6.19217 15.9719 6.29391 16 6.4 16H17.6C17.7061 16 17.8078 15.9719 17.8828 15.9219C17.9579 15.8719 18 15.8041 18 15.7333V8.26667C18 8.19594 17.9579 8.12811 17.8828 8.07811C17.8078 8.0281 17.7061 8 17.6 8Z" stroke-width="2" stroke-miterlimit="1.5" stroke-linecap="round" stroke-linejoin="round"/>
</svg>
