<svg viewBox="0 0 24 24" fill="none" xmlns="http://www.w3.org/2000/svg">
<path d="M7.99999 15.3209L6.17699 13.5849C6.02464 13.4403 5.84466 13.328 5.64783 13.2546C5.45101 13.1812 5.24139 13.1484 5.03156 13.158C4.82172 13.1676 4.61599 13.2195 4.42671 13.3106C4.23742 13.4016 4.06847 13.53 3.92999 13.6879C3.67558 13.979 3.53831 14.3542 3.54477 14.7407C3.55124 15.1272 3.70099 15.4976 3.96499 15.7799L9.90699 22.1179C10.286 22.5209 10.813 22.7499 11.366 22.7499H16C18.4 22.7499 20 20.7499 20 18.7499V7.24999" stroke-width="1.5" stroke-linecap="round" stroke-linejoin="round"/>
<path d="M17 10.7498V7.25C17 4.964 20 4.96399 20 7.24999M14 10.7498V4.7499C14 2.4639 17 2.4639 17 4.7499V10.7498M11 10.7498V3.2499C11 0.9639 14 0.9639 14 3.2499V10.7498M7.99999 15.3209V4.24985C7.99999 3.85202 8.15802 3.47049 8.43933 3.18919C8.72063 2.90788 9.10216 2.74985 9.49999 2.74985C10.328 2.74985 11 3.41985 11 4.24885V10.7498" stroke-width="1.5" stroke-linecap="round" stroke-linejoin="round"/>
</svg>
