<svg viewBox="0 0 24 24" fill="none" xmlns="http://www.w3.org/2000/svg">
<path d="M20.4 5H3.6C3.44087 5 3.28826 5.04917 3.17574 5.13668C3.06321 5.2242 3 5.3429 3 5.46667V18.5333C3 18.6571 3.06321 18.7758 3.17574 18.8633C3.28826 18.9508 3.44087 19 3.6 19H20.4C20.5591 19 20.7117 18.9508 20.8243 18.8633C20.9368 18.7758 21 18.6571 21 18.5333V5.46667C21 5.3429 20.9368 5.2242 20.8243 5.13668C20.7117 5.04917 20.5591 5 20.4 5Z" stroke-width="2" stroke-miterlimit="1.5" stroke-linecap="round" stroke-linejoin="round"/>
<path d="M17.7667 11H11.2333C11.1714 11 11.1121 11.0176 11.0683 11.0488C11.0246 11.0801 11 11.1225 11 11.1667V15.8333C11 15.8775 11.0246 15.9199 11.0683 15.9512C11.1121 15.9824 11.1714 16 11.2333 16H17.7667C17.8286 16 17.8879 15.9824 17.9317 15.9512C17.9754 15.9199 18 15.8775 18 15.8333V11.1667C18 11.1225 17.9754 11.0801 17.9317 11.0488C17.8879 11.0176 17.8286 11 17.7667 11Z" stroke-width="2" stroke-miterlimit="1.5" stroke-linecap="round" stroke-linejoin="round"/>
</svg>
