<svg viewBox="0 0 20 20">
  <title>file ia</title>
  <style>
    :host {
      --stroke-width: 2;
    }

    :host {
      path {
        stroke-width: var(--stroke-width) !important;
        fill: none !important;
      }
    }
  </style>
<path d="M12.0833 1.66666H5.41667C4.97464 1.66666 4.55072 1.84226 4.23816 2.15482C3.9256 2.46738 3.75001 2.8913 3.75001 3.33333V8.33333M12.0833 1.66666L17.0833 6.66666M12.0833 1.66666L11.6667 6.66666H17.0833M17.0833 6.66666V16.6667C17.0833 17.1087 16.9077 17.5326 16.5952 17.8452C16.2826 18.1577 15.8587 18.3333 15.4167 18.3333H12.0833M7.08334 18.3333C7.08334 15.8333 8.33334 14.1667 11.25 14.1667C8.33334 14.1667 7.08334 12.5 7.08334 10C7.08334 12.5 5.83334 14.1667 2.91667 14.1667C5.83334 14.1667 7.08334 15.8333 7.08334 18.3333Z" />
</svg>
